# xmcd CD database file
#
# Track frame offsets:
#	150
#	21892
#	35692
#
# Disc length: 763 seconds
#
# Revision: 0
# Processed by: cddbd v1.5.1PL0 Copyright (c) Steve Scherf et al.
# Submitted via: CDex 1.50
#
DISCID=1e02f903
DTITLE=ｒumania montevideo - start all over again
DYEAR=2000
DGENRE=J-POP
TTITLE0=start all over again
TTITLE1=my life
TTITLE2=start all over again(instrumental)
EXTD=YEAR: 2000
EXTT0=
EXTT1=
EXTT2=
PLAYORDER=
